<?xml version="1.0" standalone="no"?><!DOCTYPE svg PUBLIC "-//W3C//DTD SVG 1.1//EN" "http://www.w3.org/Graphics/SVG/1.1/DTD/svg11.dtd"><svg t="1580878390434" class="icon" viewBox="0 0 1024 1024" version="1.1" xmlns="http://www.w3.org/2000/svg" p-id="2215" width="32" height="32" xmlns:xlink="http://www.w3.org/1999/xlink"><defs><style type="text/css"></style></defs><path d="M928 0H96C43.2 0 0 43.2 0 96v832c0 52.8 43.2 96 96 96h832c52.8 0 96-43.2 96-96V96c0-52.8-43.2-96-96-96zM279.008 831.2A86.72 86.72 0 0 1 192 744.608a87.04 87.04 0 0 1 174.016 0 86.72 86.72 0 0 1-87.008 86.592z m218.4 0.8a304.192 304.192 0 0 0-89.408-216.384 303.36 303.36 0 0 0-216-89.6v-125.184c237.6 0 431.2 193.408 431.2 431.2h-125.792z m222.208 0c0-291.008-236.608-528-527.392-528V178.816c360 0 652.992 293.184 652.992 653.216h-125.6z" p-id="2216"></path></svg>